# xmcd
#
# Track frame offsets: 
#        150
#        10332
#        23109
#        36259
#        47929
#        59755
#        71775
#        84274
#        95375
#        107953
#        121579
#        135335
#        148812
#        161344
#        175048
#        189467
#        202536
#        215006
#        227355
#        239604
#
# Disc length: 3374 seconds
#
# Revision: 1
# Processed by: cddbd v1.5.2PL0 Copyright (c) Steve Scherf et al.
# Submitted via: ExactAudioCopyFreeDBPlugin 1.0
#
DISCID=0f0d2c14
DTITLE=John Lee Hooker - Anthology CD1
DYEAR=2011
DGENRE=Blues
TTITLE0=Dimples
TTITLE1=Hobo Blues
TTITLE2=I'm So Excited
TTITLE3=I Love You Honey
TTITLE4=Boogie Chillun
TTITLE5=Little Wheel
TTITLE6=I'm In The Mood
TTITLE7=Maudie
TTITLE8=Crawlin'Kingsnake
TTITLE9=Every Night
TTITLE10=Time Is Marching
TTITLE11=Baby Lee
TTITLE12=Mambo Chillun
TTITLE13=The Road Is So Rough
TTITLE14=I'm So Worried,Baby
TTITLE15=I Can See You When You"re Weak
TTITLE16=Rosie Mea
TTITLE17=You Can Lead Me
TTITLE18=Walkin'The Boogie
TTITLE19=Love Blues
EXTD=
EXTT0=
EXTT1=
EXTT2=
EXTT3=
EXTT4=
EXTT5=
EXTT6=
EXTT7=
EXTT8=
EXTT9=
EXTT10=
EXTT11=
EXTT12=
EXTT13=
EXTT14=
EXTT15=
EXTT16=
EXTT17=
EXTT18=
EXTT19=
PLAYORDER=
